<?xml version="1.0" encoding="UTF-8" standalone="no"?>
<!DOCTYPE svg PUBLIC "-//W3C//DTD SVG 1.1//EN"
 "http://www.w3.org/Graphics/SVG/1.1/DTD/svg11.dtd">
<!-- Generated by graphviz version 2.28.0 (20110507.0327)
 -->
<!-- Title: Stir&#45;Fried Tofu and Bok Choy in Ginger Sauce Pages: 1 -->
<svg width="2302pt" height="889pt"
 viewBox="0.00 0.00 2302.00 889.00" xmlns="http://www.w3.org/2000/svg" xmlns:xlink="http://www.w3.org/1999/xlink">
<g id="graph1" class="graph" transform="scale(1 1) rotate(0) translate(4 885)">
<title>Stir&#45;Fried Tofu and Bok Choy in Ginger Sauce</title>
<polygon fill="white" stroke="white" points="-4,5 -4,-885 2299,-885 2299,5 -4,5"/>
<!-- GingerSauce -->
<g id="node2" class="node"><title>GingerSauce</title>
<polygon fill="none" stroke="black" points="72,-0 72,-208 344,-208 344,-0 72,-0"/>
<text text-anchor="middle" x="208" y="-191.2" font-family="Times New Roman,serif" font-size="16.00">Ginger Sauce</text>
<polyline fill="none" stroke="black" points="72,-182 344,-182 "/>
<text text-anchor="middle" x="208" y="-165.2" font-family="Times New Roman,serif" font-size="16.00">288 g (6 tbsp) low&#45;sodium soy sauce</text>
<polyline fill="none" stroke="black" points="72,-156 344,-156 "/>
<text text-anchor="middle" x="208" y="-139.2" font-family="Times New Roman,serif" font-size="16.00">288 g (6 tbsp) low&#45;sodium chicken broth</text>
<polyline fill="none" stroke="black" points="72,-130 344,-130 "/>
<text text-anchor="middle" x="208" y="-113.2" font-family="Times New Roman,serif" font-size="16.00">288 g (2 tbsp) dry sherry</text>
<polyline fill="none" stroke="black" points="72,-104 344,-104 "/>
<text text-anchor="middle" x="208" y="-87.2" font-family="Times New Roman,serif" font-size="16.00">x g (1 tbsp) sugar</text>
<polyline fill="none" stroke="black" points="72,-78 344,-78 "/>
<text text-anchor="middle" x="208" y="-61.2" font-family="Times New Roman,serif" font-size="16.00">x g (2 tsp) cornstarch</text>
<polyline fill="none" stroke="black" points="72,-52 344,-52 "/>
<text text-anchor="middle" x="208" y="-35.2" font-family="Times New Roman,serif" font-size="16.00">x g (1 tsp) toasted sesame oil</text>
<polyline fill="none" stroke="black" points="72,-26 344,-26 "/>
<text text-anchor="middle" x="208" y="-9.2" font-family="Times New Roman,serif" font-size="16.00">x g (1 tbsp) grated fresh ginger</text>
</g>
<!-- CombineAll -->
<g id="node27" class="node"><title>CombineAll</title>
<polygon fill="none" stroke="black" points="1618,-301 1618,-431 2294,-431 2294,-301 1618,-301"/>
<text text-anchor="middle" x="1956" y="-414.2" font-family="Times New Roman,serif" font-size="16.00">Stir the garlic mixture into the vegetables</text>
<polyline fill="none" stroke="black" points="1618,-405 2294,-405 "/>
<text text-anchor="middle" x="1956" y="-388.2" font-family="Times New Roman,serif" font-size="16.00">Add the scallion greens and tofu and toss to combine</text>
<polyline fill="none" stroke="black" points="1618,-379 2294,-379 "/>
<text text-anchor="middle" x="1956" y="-362.2" font-family="Times New Roman,serif" font-size="16.00">Add Ginger Sauce to the pan and bring to a simmer</text>
<polyline fill="none" stroke="black" points="1618,-353 2294,-353 "/>
<text text-anchor="middle" x="1956" y="-336.2" font-family="Times New Roman,serif" font-size="16.00">Remove the pan from the heat and toss until all the ingredients are well coated with sauce and sizzling hot.</text>
<polyline fill="none" stroke="black" points="1618,-327 2294,-327 "/>
<text text-anchor="middle" x="1956" y="-310.2" font-family="Times New Roman,serif" font-size="16.00">Serve immediately.</text>
</g>
<!-- GingerSauce&#45;&gt;CombineAll -->
<g id="edge33" class="edge"><title>GingerSauce:f0&#45;&gt;CombineAll:f2</title>
<path fill="none" stroke="black" d="M345,-195C895.039,-195 1132.32,44.5725 1580,-275 1587.28,-280.197 1600.7,-337.562 1611.34,-358.45"/>
<polygon fill="black" stroke="black" points="1608.76,-360.815 1618,-366 1614.01,-356.185 1608.76,-360.815"/>
<text text-anchor="middle" x="985" y="-128.8" font-family="Times New Roman,serif" font-size="14.00">whisk to recombine</text>
</g>
<!-- BokChoy -->
<g id="node3" class="node"><title>BokChoy</title>
<polygon fill="none" stroke="black" points="71.5,-573 71.5,-677 344.5,-677 344.5,-573 71.5,-573"/>
<text text-anchor="middle" x="208" y="-660.2" font-family="Times New Roman,serif" font-size="16.00">1 pound bok choy (1 small head), washed</text>
<polyline fill="none" stroke="black" points="71.5,-651 344.5,-651 "/>
<text text-anchor="middle" x="208" y="-634.2" font-family="Times New Roman,serif" font-size="16.00">cut stems apart from leaves</text>
<polyline fill="none" stroke="black" points="71.5,-625 344.5,-625 "/>
<text text-anchor="middle" x="208" y="-608.2" font-family="Times New Roman,serif" font-size="16.00">trim stems and cut crosswise 1 inch thick</text>
<polyline fill="none" stroke="black" points="71.5,-599 344.5,-599 "/>
<text text-anchor="middle" x="208" y="-582.2" font-family="Times New Roman,serif" font-size="16.00">tear leaves into large pieces</text>
</g>
<!-- CookBokChoyStems -->
<g id="node17" class="node"><title>CookBokChoyStems</title>
<polygon fill="none" stroke="black" points="628.5,-604 628.5,-682 907.5,-682 907.5,-604 628.5,-604"/>
<text text-anchor="middle" x="768" y="-665.2" font-family="Times New Roman,serif" font-size="16.00">Heat 1 more tsp oil to shimmering</text>
<polyline fill="none" stroke="black" points="628.5,-656 907.5,-656 "/>
<text text-anchor="middle" x="768" y="-639.2" font-family="Times New Roman,serif" font-size="16.00">cook stems until crisp&#45;tender, about 3 min</text>
<polyline fill="none" stroke="black" points="628.5,-630 907.5,-630 "/>
<text text-anchor="middle" x="768" y="-613.2" font-family="Times New Roman,serif" font-size="16.00">transfer to clean bowl</text>
</g>
<!-- BokChoy&#45;&gt;CookBokChoyStems -->
<g id="edge13" class="edge"><title>BokChoy:f2&#45;&gt;CookBokChoyStems:f1</title>
<path fill="none" stroke="black" d="M346,-612C468.211,-612 499.657,-641.328 616.904,-642.932"/>
<polygon fill="black" stroke="black" points="616.977,-646.432 627,-643 617.024,-639.432 616.977,-646.432"/>
</g>
<!-- CookBokAndCar -->
<g id="node21" class="node"><title>CookBokAndCar</title>
<polygon fill="none" stroke="black" points="1153.5,-547 1153.5,-599 1484.5,-599 1484.5,-547 1153.5,-547"/>
<text text-anchor="middle" x="1319" y="-582.2" font-family="Times New Roman,serif" font-size="16.00">Combine</text>
<polyline fill="none" stroke="black" points="1153.5,-573 1484.5,-573 "/>
<text text-anchor="middle" x="1319" y="-556.2" font-family="Times New Roman,serif" font-size="16.00">stir fry until leaves begin to wilt, about 30 seconds</text>
</g>
<!-- BokChoy&#45;&gt;CookBokAndCar -->
<g id="edge19" class="edge"><title>BokChoy:f3&#45;&gt;CookBokAndCar:f0</title>
<path fill="none" stroke="black" d="M346,-586C469.595,-586 500.415,-580.556 624,-579 751.99,-577.389 784.014,-577.134 912,-579 1015.26,-580.506 1043.49,-585.653 1141.93,-585.983"/>
<polygon fill="black" stroke="black" points="1141.99,-589.483 1152,-586 1142.01,-582.483 1141.99,-589.483"/>
<text text-anchor="middle" x="768" y="-582.8" font-family="Times New Roman,serif" font-size="14.00">add to pan</text>
</g>
<!-- Tofu -->
<g id="node4" class="node"><title>Tofu</title>
<polygon fill="none" stroke="black" points="96,-324 96,-360 320,-360 320,-324 96,-324"/>
<text text-anchor="middle" x="208" y="-338.2" font-family="Times New Roman,serif" font-size="16.00">1 package (14 oz) extra&#45;firm tofu</text>
</g>
<!-- Tofu1 -->
<g id="node9" class="node"><title>Tofu1</title>
<polygon fill="none" stroke="black" points="663,-285 663,-337 873,-337 873,-285 663,-285"/>
<text text-anchor="middle" x="768" y="-320.2" font-family="Times New Roman,serif" font-size="16.00">cut tofu into 1/2 inch cubes</text>
<polyline fill="none" stroke="black" points="663,-311 873,-311 "/>
<text text-anchor="middle" x="768" y="-294.2" font-family="Times New Roman,serif" font-size="16.00">toss tofu in marinade for 1 min</text>
</g>
<!-- Tofu&#45;&gt;Tofu1 -->
<g id="edge3" class="edge"><title>Tofu:f0&#45;&gt;Tofu1:f0</title>
<path fill="none" stroke="black" d="M320.362,-335.066C409.517,-330.144 537.681,-324.351 651.715,-324.015"/>
<polygon fill="black" stroke="black" points="652.005,-327.515 662,-324 651.995,-320.515 652.005,-327.515"/>
<text text-anchor="middle" x="520" y="-333.8" font-family="Times New Roman,serif" font-size="14.00">compress for 30 min and drain</text>
</g>
<!-- Marinade -->
<g id="node5" class="node"><title>Marinade</title>
<polygon fill="none" stroke="black" points="88.5,-227 88.5,-305 327.5,-305 327.5,-227 88.5,-227"/>
<text text-anchor="middle" x="208" y="-288.2" font-family="Times New Roman,serif" font-size="16.00">Tofu marinade</text>
<polyline fill="none" stroke="black" points="88.5,-279 327.5,-279 "/>
<text text-anchor="middle" x="208" y="-262.2" font-family="Times New Roman,serif" font-size="16.00">288 g (2 tsp) low&#45;sodium soy sauce</text>
<polyline fill="none" stroke="black" points="88.5,-253 327.5,-253 "/>
<text text-anchor="middle" x="208" y="-236.2" font-family="Times New Roman,serif" font-size="16.00">288 g (2 tsp) dry sherry</text>
</g>
<!-- Marinade&#45;&gt;Tofu1 -->
<g id="edge5" class="edge"><title>Marinade:f0&#45;&gt;Tofu1:f1</title>
<path fill="none" stroke="black" d="M329,-292C473.555,-292 512.183,-297.722 651.772,-297.99"/>
<polygon fill="black" stroke="black" points="651.997,-301.49 662,-298 652.003,-294.49 651.997,-301.49"/>
</g>
<!-- Scallions -->
<g id="node6" class="node"><title>Scallions</title>
<polygon fill="none" stroke="black" points="76.5,-379 76.5,-457 339.5,-457 339.5,-379 76.5,-379"/>
<text text-anchor="middle" x="208" y="-440.2" font-family="Times New Roman,serif" font-size="16.00">3 scallions</text>
<polyline fill="none" stroke="black" points="76.5,-431 339.5,-431 "/>
<text text-anchor="middle" x="208" y="-414.2" font-family="Times New Roman,serif" font-size="16.00">mince the white parts</text>
<polyline fill="none" stroke="black" points="76.5,-405 339.5,-405 "/>
<text text-anchor="middle" x="208" y="-388.2" font-family="Times New Roman,serif" font-size="16.00">cut the green parts into 1/4&#45;inch lengths</text>
</g>
<!-- GarlicMixture1 -->
<g id="node15" class="node"><title>GarlicMixture1</title>
<polygon fill="none" stroke="black" points="713,-447 713,-499 823,-499 823,-447 713,-447"/>
<text text-anchor="middle" x="768" y="-482.2" font-family="Times New Roman,serif" font-size="16.00">Garlic Mixture</text>
<polyline fill="none" stroke="black" points="713,-473 823,-473 "/>
<text text-anchor="middle" x="768" y="-456.2" font-family="Times New Roman,serif" font-size="16.00">set aside</text>
</g>
<!-- Scallions&#45;&gt;GarlicMixture1 -->
<g id="edge11" class="edge"><title>Scallions:f1&#45;&gt;GarlicMixture1:f0</title>
<path fill="none" stroke="black" d="M341,-418C421.626,-418 612.865,-480.919 701.916,-485.712"/>
<polygon fill="black" stroke="black" points="701.904,-489.213 712,-486 702.104,-482.215 701.904,-489.213"/>
<text text-anchor="middle" x="520" y="-473.8" font-family="Times New Roman,serif" font-size="14.00">add white parts</text>
</g>
<!-- Scallions&#45;&gt;CombineAll -->
<g id="edge29" class="edge"><title>Scallions:f2&#45;&gt;CombineAll:f1</title>
<path fill="none" stroke="black" d="M341,-392C905.091,-392 1048.7,-392 1607.66,-392"/>
<polygon fill="black" stroke="black" points="1608,-395.5 1618,-392 1608,-388.5 1608,-395.5"/>
</g>
<!-- Carrots -->
<g id="node7" class="node"><title>Carrots</title>
<polygon fill="none" stroke="black" points="50,-696 50,-732 366,-732 366,-696 50,-696"/>
<text text-anchor="middle" x="208" y="-710.2" font-family="Times New Roman,serif" font-size="16.00">2 carrots, peeled and cut into 2&#45;inch matchsticks</text>
</g>
<!-- CookCarrots -->
<g id="node19" class="node"><title>CookCarrots</title>
<polygon fill="none" stroke="black" points="624.5,-701 624.5,-753 911.5,-753 911.5,-701 624.5,-701"/>
<text text-anchor="middle" x="768" y="-736.2" font-family="Times New Roman,serif" font-size="16.00">Heat 1 more tsp oil to shimmering</text>
<polyline fill="none" stroke="black" points="624.5,-727 911.5,-727 "/>
<text text-anchor="middle" x="768" y="-710.2" font-family="Times New Roman,serif" font-size="16.00">cook carrots until crisp&#45;tender, about 2 min</text>
</g>
<!-- Carrots&#45;&gt;CookCarrots -->
<g id="edge15" class="edge"><title>Carrots:f0&#45;&gt;CookCarrots:f1</title>
<path fill="none" stroke="black" d="M366.032,-714C440.7,-714 531.379,-714 613.97,-714"/>
<polygon fill="black" stroke="black" points="614,-717.5 624,-714 614,-710.5 614,-717.5"/>
</g>
<!-- Tofu2 -->
<g id="node11" class="node"><title>Tofu2</title>
<polygon fill="none" stroke="black" points="1058.5,-285 1058.5,-363 1579.5,-363 1579.5,-285 1058.5,-285"/>
<text text-anchor="middle" x="1319" y="-346.2" font-family="Times New Roman,serif" font-size="16.00">Heat 1 more tsp oil in a 12&#45;inch nonstick skillet over high heat until just smoking</text>
<polyline fill="none" stroke="black" points="1058.5,-337 1579.5,-337 "/>
<text text-anchor="middle" x="1319" y="-320.2" font-family="Times New Roman,serif" font-size="16.00">stir fry tofu 4&#45;6 min until lightly browned</text>
<polyline fill="none" stroke="black" points="1058.5,-311 1579.5,-311 "/>
<text text-anchor="middle" x="1319" y="-294.2" font-family="Times New Roman,serif" font-size="16.00">transfer tofu to clean bowl</text>
</g>
<!-- Tofu1&#45;&gt;Tofu2 -->
<g id="edge7" class="edge"><title>Tofu1:f0&#45;&gt;Tofu2:f1</title>
<path fill="none" stroke="black" d="M874,-324C952.264,-324 974.352,-324 1047.79,-324"/>
<polygon fill="black" stroke="black" points="1048,-327.5 1058,-324 1048,-320.5 1048,-327.5"/>
</g>
<!-- Tofu2&#45;&gt;CombineAll -->
<g id="edge31" class="edge"><title>Tofu2:f2&#45;&gt;CombineAll:f1</title>
<path fill="none" stroke="black" d="M1580,-298C1599.1,-298 1596.93,-365.541 1609.55,-386.12"/>
<polygon fill="black" stroke="black" points="1607.79,-389.159 1618,-392 1611.79,-383.414 1607.79,-389.159"/>
</g>
<!-- GarlicMixture -->
<g id="node13" class="node"><title>GarlicMixture</title>
<polygon fill="none" stroke="black" points="100.5,-476 100.5,-554 315.5,-554 315.5,-476 100.5,-476"/>
<text text-anchor="middle" x="208" y="-537.2" font-family="Times New Roman,serif" font-size="16.00">3 medium garlic cloves, pressed</text>
<polyline fill="none" stroke="black" points="100.5,-528 315.5,-528 "/>
<text text-anchor="middle" x="208" y="-511.2" font-family="Times New Roman,serif" font-size="16.00">1 tbsp fresh ginger, grated</text>
<polyline fill="none" stroke="black" points="100.5,-502 315.5,-502 "/>
<text text-anchor="middle" x="208" y="-485.2" font-family="Times New Roman,serif" font-size="16.00">2 tsp peanut or vegetable oil</text>
</g>
<!-- GarlicMixture&#45;&gt;GarlicMixture1 -->
<g id="edge9" class="edge"><title>GarlicMixture:f0&#45;&gt;GarlicMixture1:f0</title>
<path fill="none" stroke="black" d="M317,-541C490.787,-541 533.117,-488.127 701.769,-486.062"/>
<polygon fill="black" stroke="black" points="702.021,-489.561 712,-486 701.979,-482.561 702.021,-489.561"/>
<text text-anchor="middle" x="520" y="-534.8" font-family="Times New Roman,serif" font-size="14.00">combine in a small bowl</text>
</g>
<!-- CookGarlic -->
<g id="node25" class="node"><title>CookGarlic</title>
<polygon fill="none" stroke="black" points="1089.5,-421 1089.5,-499 1548.5,-499 1548.5,-421 1089.5,-421"/>
<text text-anchor="middle" x="1319" y="-482.2" font-family="Times New Roman,serif" font-size="16.00">Clear center of pan</text>
<polyline fill="none" stroke="black" points="1089.5,-473 1548.5,-473 "/>
<text text-anchor="middle" x="1319" y="-456.2" font-family="Times New Roman,serif" font-size="16.00">cook, mashing the garlic mixture into the pan with the back of a spatula</text>
<polyline fill="none" stroke="black" points="1089.5,-447 1548.5,-447 "/>
<text text-anchor="middle" x="1319" y="-430.2" font-family="Times New Roman,serif" font-size="16.00">until fragrant, about 45 seconds</text>
</g>
<!-- GarlicMixture1&#45;&gt;CookGarlic -->
<g id="edge23" class="edge"><title>GarlicMixture1:f1&#45;&gt;CookGarlic:f1</title>
<path fill="none" stroke="black" d="M824,-460C937.896,-460 968.872,-460 1077.91,-460"/>
<polygon fill="black" stroke="black" points="1078,-463.5 1088,-460 1078,-456.5 1078,-463.5"/>
</g>
<!-- CookBokChoyStems&#45;&gt;CookBokAndCar -->
<g id="edge21" class="edge"><title>CookBokChoyStems:f2&#45;&gt;CookBokAndCar:f0</title>
<path fill="none" stroke="black" d="M909,-617C1014.37,-617 1041.41,-587.966 1141.73,-586.095"/>
<polygon fill="black" stroke="black" points="1142.03,-589.592 1152,-586 1141.97,-582.592 1142.03,-589.592"/>
<text text-anchor="middle" x="985" y="-620.8" font-family="Times New Roman,serif" font-size="14.00">return to pan</text>
</g>
<!-- CookCarrots&#45;&gt;CookBokAndCar -->
<g id="edge17" class="edge"><title>CookCarrots:f1&#45;&gt;CookBokAndCar:f0</title>
<path fill="none" stroke="black" d="M912,-714C1029.35,-714 1031.11,-593.39 1141.68,-586.323"/>
<polygon fill="black" stroke="black" points="1142.11,-589.811 1152,-586 1141.9,-582.815 1142.11,-589.811"/>
</g>
<!-- CookBokAndCar&#45;&gt;CombineAll -->
<g id="edge27" class="edge"><title>CookBokAndCar:f1&#45;&gt;CombineAll:f0</title>
<path fill="none" stroke="black" d="M1486,-560C1533.74,-560 1548.07,-543.498 1580,-508 1592.25,-494.381 1595.43,-439.672 1609.16,-422.908"/>
<polygon fill="black" stroke="black" points="1610.96,-425.914 1618,-418 1607.56,-419.793 1610.96,-425.914"/>
</g>
<!-- CookGarlic&#45;&gt;CombineAll -->
<g id="edge25" class="edge"><title>CookGarlic:f1&#45;&gt;CombineAll:f0</title>
<path fill="none" stroke="black" d="M1550,-460C1581.78,-460 1582.69,-426.392 1607.96,-419.303"/>
<polygon fill="black" stroke="black" points="1608.53,-422.758 1618,-418 1607.63,-415.816 1608.53,-422.758"/>
</g>
<!-- notes -->
<g id="node34" class="node"><title>notes</title>
<polygon fill="none" stroke="black" points="0,-751 0,-881 416,-881 416,-751 0,-751"/>
<text text-anchor="middle" x="208" y="-864.2" font-family="Times New Roman,serif" font-size="16.00">Stir&#45;Fried Tofu and Bok Choy in Ginger Sauce</text>
<polyline fill="none" stroke="black" points="0,-855 416,-855 "/>
<text text-anchor="middle" x="208" y="-838.2" font-family="Times New Roman,serif" font-size="16.00">Based on Cooks Illustrated recipe</text>
<polyline fill="none" stroke="black" points="0,-829 416,-829 "/>
<text text-anchor="middle" x="208" y="-812.2" font-family="Times New Roman,serif" font-size="16.00">Makes 4 servings</text>
<polyline fill="none" stroke="black" points="0,-803 416,-803 "/>
<text text-anchor="middle" x="208" y="-786.2" font-family="Times New Roman,serif" font-size="16.00">Per serving: Cal 240; Fat 14 g; Sat fat 2 g</text>
<polyline fill="none" stroke="black" points="0,-777 416,-777 "/>
<text text-anchor="middle" x="208" y="-760.2" font-family="Times New Roman,serif" font-size="16.00">Chol 0 mg; Carb 16 g; Protein 15 g; Fiber 4 g; Sodium 1070 mg</text>
</g>
</g>
</svg>
